<svg xmlns="http://www.w3.org/2000/svg" viewBox="0 0 100 100" fill="none">
  <!-- Rounded dark background matching the premium style -->
  <rect width="100" height="100" rx="20" fill="#0b0f19" />
  <!-- Sleek white car outline based on the user's logo -->
  <path d="M15 60 C17 60 18 59 19 58 C21 54 25 50 31 50 C37 50 41 54 43 58 C44 59 45 60 47 60 L57 60 C59 60 60 59 61 58 C63 54 67 50 73 50 C79 50 83 54 85 58 C86 59 87 60 89 60 L91 60 C92 60 93 59 93 58 C91 48 83 41 71 39 C62 36 50 31 38 34 C28 36 21 42 17 48 C15 52 14 55 14 58 C14 59 14 60 15 60 Z" fill="white" />
  <!-- Underline in brand blue -->
  <path d="M10 65 L90 65" stroke="oklch(0.66 0.18 245)" stroke-width="4" stroke-linecap="round" />
</svg>
